<?xml version="1.0" standalone="no"?>
<!DOCTYPE svg PUBLIC "-//W3C//DTD SVG 20010904//EN"
 "http://www.w3.org/TR/2001/REC-SVG-20010904/DTD/svg10.dtd">
<svg version="1.0" xmlns="http://www.w3.org/2000/svg"
 width="225.000000pt" height="225.000000pt" viewBox="0 0 225.000000 225.000000"
 preserveAspectRatio="xMidYMid meet">

<g transform="translate(0.000000,225.000000) scale(0.100000,-0.100000)"
fill="#000000" stroke="none">
<path d="M705 1963 c-178 -25 -333 -154 -396 -329 -18 -50 -22 -88 -27 -251
l-4 -192 -41 -43 c-22 -23 -52 -67 -66 -97 -25 -54 -26 -64 -29 -273 l-4 -217
-50 -3 c-42 -2 -55 -8 -71 -30 -17 -22 -19 -33 -11 -55 15 -42 47 -53 167 -53
l107 0 0 -115 c0 -110 1 -117 25 -140 24 -24 28 -25 183 -25 146 0 162 2 186
21 25 20 26 23 26 140 l0 119 425 0 425 0 0 -119 c0 -117 1 -120 26 -140 24
-19 40 -21 186 -21 155 0 159 1 183 25 24 23 25 30 25 140 l0 115 108 0 c119
0 151 11 166 53 8 22 6 33 -11 55 -16 22 -29 28 -71 30 l-50 3 -4 217 c-3 209
-4 219 -29 273 -14 30 -45 75 -68 99 l-41 43 0 156 c0 240 -31 345 -131 455
-58 64 -123 107 -205 138 -57 22 -72 22 -479 24 -231 1 -433 0 -450 -3z m874
-152 c72 -22 149 -76 184 -130 52 -79 60 -109 65 -253 l4 -136 -108 29 c-190
52 -322 70 -534 76 -239 7 -407 -11 -624 -66 l-148 -38 4 136 c5 143 13 174
65 252 35 53 111 107 181 130 51 16 98 18 454 18 361 1 402 -1 457 -18z m-519
-751 c0 -133 -4 -200 -10 -200 -19 0 -64 27 -86 52 -12 12 -40 61 -62 109 -39
83 -93 145 -162 190 -24 16 -23 17 65 28 50 7 97 14 105 16 8 1 45 3 83 4 l67
1 0 -200z m410 177 l65 -12 -36 -23 c-61 -37 -118 -109 -159 -197 -30 -66 -48
-90 -81 -114 -71 -52 -69 -56 -69 171 l0 201 108 -7 c59 -3 136 -12 172 -19z
m-817 -141 c65 -31 92 -64 139 -167 58 -124 145 -195 273 -218 111 -21 235 19
317 101 24 24 56 74 78 123 66 142 130 185 287 193 59 3 93 1 93 -5 0 -6 18
-23 40 -38 24 -17 49 -47 65 -78 24 -49 25 -57 25 -249 l0 -198 -845 0 -845 0
0 198 c0 228 6 250 87 327 l48 46 92 -4 c74 -3 103 -9 146 -31z m-93 -746 l0
-70 -70 0 -70 0 0 70 0 70 70 0 70 0 0 -70z m1270 0 l0 -70 -70 0 -70 0 0 70
0 70 70 0 70 0 0 -70z"/>
<path d="M504 970 c-11 -4 -32 -22 -47 -39 -76 -91 -12 -224 109 -224 136 0
186 195 65 258 -32 16 -93 19 -127 5z"/>
<path d="M1613 961 c-114 -72 -63 -254 71 -254 129 0 189 148 96 238 -40 38
-119 46 -167 16z"/>
</g>
</svg>
