<?xml version="1.0" standalone="no"?>
<!DOCTYPE svg PUBLIC "-//W3C//DTD SVG 20010904//EN"
 "http://www.w3.org/TR/2001/REC-SVG-20010904/DTD/svg10.dtd">
<svg version="1.0" xmlns="http://www.w3.org/2000/svg"
 width="225.000000pt" height="225.000000pt" viewBox="0 0 225.000000 225.000000"
 preserveAspectRatio="xMidYMid meet">

<g transform="translate(0.000000,225.000000) scale(0.100000,-0.100000)"
fill="#000000" stroke="none">
<path d="M1813 2235 c-14 -10 -23 -30 -28 -62 -14 -101 -86 -177 -178 -189
-82 -11 -114 -71 -61 -113 15 -12 40 -21 56 -21 78 0 160 -77 178 -167 14 -68
33 -93 70 -93 37 0 56 25 70 93 18 91 100 166 181 167 36 0 79 36 79 66 0 36
-31 60 -86 68 -93 12 -164 87 -179 188 -9 69 -54 97 -102 63z m70 -285 l29
-30 -29 -34 c-15 -19 -30 -35 -33 -35 -3 0 -18 16 -33 35 l-29 34 29 30 c15
16 30 30 33 30 3 0 18 -14 33 -30z"/>
<path d="M503 1840 c-13 -5 -25 -21 -29 -37 -18 -81 -26 -103 -53 -140 -29
-40 -89 -73 -132 -73 -32 0 -76 -27 -82 -51 -13 -47 32 -89 95 -89 25 0 88
-33 110 -56 15 -18 14 -29 -24 -180 l-41 -161 -41 -11 c-99 -26 -189 -118
-221 -225 -23 -79 -21 -378 4 -432 17 -39 81 -105 101 -105 6 0 10 -21 10 -47
0 -69 17 -118 53 -160 83 -94 211 -94 294 0 36 41 53 91 53 155 l0 42 460 0
460 0 0 -53 c0 -183 195 -280 327 -164 46 41 63 82 63 156 0 56 2 62 29 75 42
22 89 81 102 128 7 28 10 106 7 218 -3 175 -3 176 -36 243 -44 88 -122 153
-209 172 -18 3 -33 8 -33 10 0 2 -23 95 -51 207 -60 235 -75 266 -159 306 -31
15 -86 18 -436 22 l-401 5 -35 24 c-49 34 -77 80 -87 142 -6 36 -16 59 -31 71
-25 20 -34 21 -67 8z m62 -290 l29 -30 -32 -33 -32 -32 -32 32 -32 33 29 30
c16 16 32 30 35 30 3 0 19 -14 35 -30z m969 -122 c12 -20 96 -332 96 -359 0
-5 -26 -9 -57 -9 l-58 0 -29 55 c-47 90 -127 137 -233 137 -102 1 -200 -65
-239 -158 l-14 -34 -255 0 c-149 0 -255 4 -255 9 0 5 5 33 12 62 10 44 17 54
45 65 38 16 48 33 56 92 7 57 49 116 100 141 40 20 59 21 429 21 l388 0 14
-22z m-205 -327 c50 -35 39 -41 -74 -41 -120 0 -130 9 -55 48 50 25 88 23 129
-7z m476 -193 c35 -19 77 -62 96 -98 18 -34 26 -329 9 -370 -6 -15 -24 -33
-38 -39 -19 -8 -262 -11 -830 -9 l-804 3 -20 25 c-18 22 -19 37 -16 195 3 156
5 173 26 210 26 45 76 84 124 95 18 5 346 8 728 7 627 -2 698 -4 725 -19z
m-1341 -692 c0 -53 -26 -86 -66 -86 -33 0 -68 45 -68 88 0 21 3 42 7 46 4 4
34 6 68 4 l60 -3 -1 -49z m1320 0 c0 -53 -26 -86 -66 -86 -33 0 -68 45 -68 88
0 21 3 42 7 46 4 4 34 6 68 4 l60 -3 -1 -49z"/>
<path d="M356 774 c-22 -21 -20 -70 4 -92 10 -10 81 -48 158 -85 121 -60 141
-67 165 -58 15 6 32 22 39 36 21 47 1 66 -154 143 -147 74 -185 84 -212 56z"/>
<path d="M1551 721 c-74 -38 -140 -76 -148 -86 -30 -42 -1 -98 52 -97 30 0
269 115 303 145 44 41 17 108 -44 106 -16 0 -89 -31 -163 -68z"/>
<path d="M880 640 c-25 -25 -25 -51 -1 -81 18 -23 26 -24 163 -27 154 -4 193
4 207 40 9 25 -3 68 -22 80 -7 4 -83 8 -169 8 -145 0 -160 -2 -178 -20z"/>
</g>
</svg>
