<?xml version="1.0" standalone="no"?>
<!DOCTYPE svg PUBLIC "-//W3C//DTD SVG 20010904//EN"
 "http://www.w3.org/TR/2001/REC-SVG-20010904/DTD/svg10.dtd">
<svg version="1.0" xmlns="http://www.w3.org/2000/svg"
 width="208.000000pt" height="208.000000pt" viewBox="0 0 208.000000 208.000000"
 preserveAspectRatio="xMidYMid meet">

<g transform="translate(0.000000,208.000000) scale(0.100000,-0.100000)"
fill="#000000" stroke="none">
<path d="M1135 1164 c-121 -6 -257 -25 -289 -41 -23 -11 -40 -34 -65 -85 -19
-38 -39 -71 -45 -73 -15 -4 -262 -25 -416 -35 -73 -4 -142 -15 -163 -23 -33
-14 -37 -20 -37 -52 0 -20 5 -46 12 -58 7 -12 12 -46 12 -74 1 -48 -1 -53 -21
-53 -27 0 -35 -12 -38 -59 -2 -20 -6 -49 -10 -65 -10 -38 13 -56 75 -56 25 0
51 -5 56 -10 6 -6 35 -12 66 -13 48 -3 59 -7 91 -39 l36 -37 -57 -6 c-164 -20
-249 -42 -230 -60 12 -12 199 -44 323 -56 219 -19 473 2 775 67 268 58 762
173 768 179 12 12 -24 26 -59 23 l-35 -3 10 42 c6 29 15 43 26 43 9 0 37 7 63
16 l47 16 0 53 c0 30 -5 57 -10 60 -6 4 -9 31 -8 60 3 77 -13 91 -110 99 -105
10 -108 11 -143 64 -72 107 -111 132 -240 157 -87 16 -261 25 -384 19z m359
-39 c131 -23 172 -49 245 -157 17 -26 35 -50 41 -53 5 -3 50 -9 101 -14 58 -5
95 -13 101 -22 5 -8 6 -34 3 -59 -3 -31 0 -52 9 -65 14 -21 16 -78 3 -91 -4
-4 -7 11 -7 33 0 39 -2 42 -47 65 -46 22 -56 23 -294 23 l-247 -1 -5 41 c-3
22 -8 48 -12 58 -6 14 -1 17 31 19 l39 1 -35 4 c-19 2 -64 7 -100 12 -36 5
-119 5 -185 1 l-120 -7 146 -1 c195 -3 206 -5 219 -51 22 -79 23 -78 -97 -87
-60 -4 -154 -8 -210 -8 -55 -1 -99 -4 -97 -7 8 -14 56 -15 229 -4 99 6 182 7
183 3 2 -5 9 -4 16 1 7 6 106 13 221 17 178 6 218 4 266 -9 66 -20 92 -44 87
-84 -4 -38 -40 -44 -56 -9 -6 14 -23 32 -37 42 -23 15 -27 15 -49 0 -14 -8
-30 -31 -37 -50 -12 -32 -18 -36 -73 -48 -58 -13 -61 -13 -68 7 -6 19 -6 19
-7 -2 -1 -13 -3 -23 -6 -23 -3 0 -59 -12 -126 -26 -100 -22 -123 -24 -130 -13
-7 12 -9 11 -9 -1 -1 -8 -10 8 -21 37 -18 47 -41 68 -65 61 -5 -1 -23 12 -40
29 -57 58 -131 57 -183 -2 -26 -30 -37 -35 -75 -35 -40 0 -47 3 -61 30 -12 24
-22 30 -47 30 l-31 0 28 22 c20 15 30 18 33 10 2 -7 8 -10 13 -7 10 7 -41 115
-63 132 -46 39 -103 15 -114 -47 -4 -26 -3 -31 5 -20 9 12 11 10 11 -10 0 -14
8 -36 17 -49 l16 -24 -124 6 c-225 12 -494 20 -489 15 3 -3 131 -11 285 -18
154 -6 316 -15 359 -18 75 -7 80 -9 96 -37 15 -26 22 -30 54 -27 20 2 44 -2
54 -8 11 -7 12 -10 2 -7 -8 2 -24 -1 -35 -6 -19 -10 -18 -12 10 -17 30 -5 30
-5 27 -65 -2 -33 -9 -66 -14 -72 -7 -9 -39 -12 -102 -11 l-91 2 95 5 95 6 3
57 3 56 -148 -1 c-81 0 -168 3 -192 8 -38 7 -44 6 -38 -8 3 -9 1 -17 -5 -19
-7 -3 -9 -12 -5 -22 6 -14 10 -16 21 -7 11 9 22 8 50 -5 33 -16 37 -16 54 -1
14 13 38 17 103 17 82 0 84 -1 100 -29 l17 -28 -90 -5 c-50 -3 -128 -3 -174 0
l-83 5 -11 33 c-6 19 -9 38 -5 43 10 18 -28 28 -112 30 -46 1 -117 6 -160 11
-61 6 -79 5 -91 -6 -11 -12 -12 -17 -1 -30 8 -10 16 -11 22 -5 6 6 17 7 26 2
9 -5 68 -12 131 -16 120 -8 150 -16 150 -40 0 -19 -101 -20 -234 -4 -97 12
-110 19 -120 61 -8 33 27 72 56 62 11 -3 76 -9 146 -13 124 -8 177 -3 117 10
-18 4 -6 6 33 4 34 -1 69 -8 77 -15 9 -7 64 -14 139 -17 107 -5 127 -4 141 11
15 15 15 16 -3 16 -10 0 -24 11 -30 25 -10 22 -18 25 -65 25 -29 0 -58 5 -63
10 -7 7 -103 15 -230 20 -322 14 -297 15 -290 -17 l6 -28 -15 28 c-13 22 -22
27 -55 27 -22 0 -40 5 -40 10 0 12 89 54 108 51 17 -3 -18 67 -46 92 -28 25
-64 19 -73 -13 -6 -22 -7 -22 -8 -4 -2 43 21 49 234 65 274 19 370 27 400 34
69 14 363 16 473 3 62 -8 117 -11 122 -8 15 9 1 94 -21 129 -13 21 -29 32 -55
37 -54 10 -404 -2 -437 -15 -16 -6 -26 -7 -22 -2 9 15 69 32 143 41 123 14
423 11 516 -5z m-368 -74 c-9 -16 -16 -39 -16 -51 0 -19 -6 -20 -135 -20
l-135 0 6 28 c4 15 10 31 15 36 8 9 153 2 202 -10 21 -5 27 -3 27 10 0 20 42
64 47 49 3 -7 -3 -25 -11 -42z m114 34 c0 -2 -11 -29 -24 -58 -22 -51 -25 -54
-55 -49 -17 2 -31 6 -31 9 0 2 10 27 21 54 20 45 24 49 55 49 19 0 34 -2 34
-5z m-412 -62 c-18 -44 -46 -78 -55 -69 -2 2 8 29 24 60 34 70 61 78 31 9z
m522 -28 c0 -22 -4 -25 -32 -25 -42 0 -63 13 -55 34 4 11 19 16 47 16 36 0 40
-2 40 -25z m-557 -142 c-6 -16 -5 -16 11 -4 13 11 20 11 28 3 7 -7 8 -12 3
-12 -6 0 -3 -5 5 -10 13 -9 13 -11 0 -20 -13 -8 -12 -10 3 -10 21 0 23 -33 2
-50 -13 -10 -19 -10 -34 4 -24 21 -36 116 -16 116 3 0 1 -8 -2 -17z m-583 -24
c10 -23 10 -32 0 -44 -17 -21 -37 -3 -42 38 -5 44 25 48 42 6z m19 -53 c-9 -8
-10 -7 -5 7 3 10 7 28 7 40 2 16 3 14 6 -7 3 -16 -1 -34 -8 -40z m661 19 c0
-18 -7 -41 -16 -49 -20 -20 -31 -21 -14 -1 6 8 13 32 13 54 2 47 17 44 17 -4z
m-593 -101 c-3 -3 -12 -4 -19 -1 -8 3 -5 6 6 6 11 1 17 -2 13 -5z m33 -4 c0
-5 -4 -10 -10 -10 -5 0 -10 5 -10 10 0 6 5 10 10 10 6 0 10 -4 10 -10z m35 0
c3 -5 -1 -10 -9 -10 -9 0 -16 5 -16 10 0 6 4 10 9 10 6 0 13 -4 16 -10z m1490
-46 c3 -31 2 -44 -4 -35 -11 17 -41 7 -41 -13 0 -9 6 -13 14 -10 23 9 29 -15
11 -42 -13 -20 -19 -23 -31 -13 -21 17 -18 38 5 32 10 -3 22 0 26 7 4 7 0 10
-11 8 -16 -3 -19 3 -16 37 2 22 10 45 18 51 7 6 14 17 14 24 0 32 11 -2 15
-46z m-1630 6 c-3 -5 4 -6 15 -3 22 6 26 -7 8 -25 -14 -14 -68 -16 -68 -2 0 6
-14 10 -31 10 -20 0 -29 -4 -26 -12 2 -7 15 -12 29 -10 15 2 29 -2 33 -7 3 -6
0 -11 -7 -11 -7 -1 -1 -8 15 -16 15 -8 27 -21 27 -30 0 -12 -12 -15 -61 -13
-60 2 -61 3 -54 28 3 14 7 40 8 56 2 30 3 30 52 27 40 -3 48 -1 38 9 -7 7 -13
20 -13 28 0 11 4 10 20 -4 11 -10 17 -21 15 -25z m182 34 c-3 -3 -12 -4 -19
-1 -8 3 -5 6 6 6 11 1 17 -2 13 -5z m40 0 c-3 -3 -12 -4 -19 -1 -8 3 -5 6 6 6
11 1 17 -2 13 -5z m63 -4 c0 -5 -9 -10 -19 -10 -11 0 -23 5 -26 10 -4 6 5 10
19 10 14 0 26 -4 26 -10z m55 0 c4 -6 -5 -10 -19 -10 -14 0 -26 5 -26 10 0 6
9 10 19 10 11 0 23 -4 26 -10z m58 -7 c-7 -2 -21 -2 -30 0 -10 3 -4 5 12 5 17
0 24 -2 18 -5z m70 0 c-7 -2 -21 -2 -30 0 -10 3 -4 5 12 5 17 0 24 -2 18 -5z
m77 -3 c0 -5 -11 -10 -24 -10 -14 0 -28 5 -31 10 -4 6 7 10 24 10 17 0 31 -4
31 -10z m-433 -6 c-3 -3 -12 -4 -19 -1 -8 3 -5 6 6 6 11 1 17 -2 13 -5z m33
-4 c0 -5 -4 -10 -10 -10 -5 0 -10 5 -10 10 0 6 5 10 10 10 6 0 10 -4 10 -10z
m35 0 c3 -5 1 -10 -4 -10 -6 0 -11 5 -11 10 0 6 2 10 4 10 3 0 8 -4 11 -10z
m773 -24 c36 -34 37 -36 37 -109 0 -61 -4 -81 -21 -103 -50 -67 -119 -86 -171
-48 -38 28 -45 54 -9 30 28 -18 52 -17 108 5 38 15 45 40 9 33 -38 -8 -61 17
-61 66 0 21 5 42 10 45 6 4 8 15 5 26 -10 31 48 26 74 -7 12 -15 21 -21 21
-14 0 18 -65 80 -84 80 -16 0 -21 12 -9 23 16 17 56 4 91 -27z m-721 18 c-3
-3 -12 -4 -19 -1 -8 3 -5 6 6 6 11 1 17 -2 13 -5z m46 -1 c-7 -2 -19 -2 -25 0
-7 3 -2 5 12 5 14 0 19 -2 13 -5z m72 -3 c4 -6 -5 -10 -19 -10 -14 0 -26 5
-26 10 0 6 9 10 19 10 11 0 23 -4 26 -10z m50 0 c18 -8 17 -9 -7 -9 -16 -1
-28 4 -28 9 0 12 8 12 35 0z m-320 -10 c3 -5 1 -10 -4 -10 -6 0 -11 5 -11 10
0 6 2 10 4 10 3 0 8 -4 11 -10z m393 3 c-10 -2 -26 -2 -35 0 -10 3 -2 5 17 5
19 0 27 -2 18 -5z m65 0 c-7 -2 -21 -2 -30 0 -10 3 -4 5 12 5 17 0 24 -2 18
-5z m127 -18 c0 -14 -3 -25 -7 -25 -5 0 -8 11 -8 25 0 14 3 25 8 25 4 0 7 -11
7 -25z m455 -32 c11 -28 24 -55 27 -59 4 -3 95 13 203 36 108 23 199 39 202
37 7 -8 -6 -27 -18 -27 -6 0 -7 5 -3 12 5 7 2 9 -7 6 -8 -3 -94 -23 -191 -44
-98 -21 -178 -43 -178 -47 0 -5 6 -7 14 -4 8 3 32 8 53 11 29 4 25 2 -15 -10
-57 -16 -89 -6 -78 23 3 7 1 13 -5 13 -6 0 -7 5 -4 10 3 6 2 10 -4 10 -5 0
-12 -8 -14 -17 -4 -16 -5 -16 -6 -1 0 9 3 19 8 23 6 3 6 17 -1 35 -10 31 -32
43 -22 13 5 -15 4 -16 -5 -3 -16 23 -13 42 6 38 9 -2 26 -25 38 -55z m-968 41
c-3 -3 -12 -4 -19 -1 -8 3 -5 6 6 6 11 1 17 -2 13 -5z m43 -4 c0 -5 -7 -7 -15
-4 -8 4 -15 8 -15 10 0 2 7 4 15 4 8 0 15 -4 15 -10z m40 0 c0 -5 -4 -10 -9
-10 -6 0 -13 5 -16 10 -3 6 1 10 9 10 9 0 16 -4 16 -10z m400 -10 c0 -13 -7
-20 -19 -20 -25 0 -38 20 -20 31 23 15 39 10 39 -11z m-347 3 c-7 -2 -19 -2
-25 0 -7 3 -2 5 12 5 14 0 19 -2 13 -5z m190 0 c-7 -2 -19 -2 -25 0 -7 3 -2 5
12 5 14 0 19 -2 13 -5z m70 0 c-7 -2 -21 -2 -30 0 -10 3 -4 5 12 5 17 0 24 -2
18 -5z m964 -49 c-3 -3 -12 -4 -19 -1 -8 3 -5 6 6 6 11 1 17 -2 13 -5z m-57
-14 c-14 -4 -34 -8 -45 -8 -16 0 -15 2 5 8 14 4 34 8 45 8 16 0 15 -2 -5 -8z
m-73 -16 c-3 -3 -12 -4 -19 -1 -8 3 -5 6 6 6 11 1 17 -2 13 -5z m-57 -14 c-14
-4 -34 -8 -45 -8 -16 0 -15 2 5 8 14 4 34 8 45 8 16 0 15 -2 -5 -8z m-197 -43
c-7 -11 -23 2 -23 19 0 12 2 12 14 2 8 -7 12 -16 9 -21z m-248 -65 c-8 -9 -45
11 -45 24 0 12 4 12 24 -3 13 -10 23 -20 21 -21z m-375 1 c20 -5 13 -8 -30
-14 -30 -4 -75 -7 -100 -8 -37 0 -42 2 -29 12 18 13 120 20 159 10z m330 -13
c13 -8 13 -10 -2 -10 -9 0 -20 5 -23 10 -8 13 5 13 25 0z"/>
<path d="M1374 1092 c4 -7 15 -12 26 -12 20 0 31 -20 29 -53 -1 -17 -3 -15 -8
7 -3 16 -12 31 -19 34 -11 3 -12 -6 -6 -44 10 -68 17 -93 29 -96 6 -2 9 15 8
37 -1 22 1 29 3 15 13 -71 18 -75 97 -76 100 0 125 -5 122 -24 -1 -8 -12 -15
-24 -14 -11 0 -21 -3 -21 -8 0 -13 48 -9 54 5 4 6 4 -4 1 -23 -5 -32 -4 -33
10 -19 14 13 14 20 4 43 -14 30 -2 46 34 46 27 0 21 35 -13 73 -16 19 -26 37
-23 41 4 4 0 4 -9 1 -9 -4 -19 -1 -24 6 -5 8 -3 10 7 5 8 -4 5 0 -5 8 -11 9
-25 16 -30 16 -6 0 -4 -5 4 -11 12 -9 12 -10 -3 -5 -10 3 -37 9 -60 13 -38 6
-40 7 -17 14 14 4 -5 6 -45 4 -54 -3 -61 -2 -30 4 l40 8 -45 2 c-25 1 -56 4
-69 8 -17 4 -22 3 -17 -5z m265 -76 c24 -13 61 -55 61 -71 0 -3 -36 -5 -81 -5
-72 0 -81 2 -86 20 -8 31 -44 37 -65 10 l-18 -22 0 25 c0 14 -3 32 -6 41 -5
14 6 16 80 16 56 0 97 -5 115 -14z m-119 -66 c0 -17 7 -20 53 -22 l52 -2 -47
-3 c-26 -2 -57 1 -68 7 -16 9 -25 8 -38 -2 -9 -7 -13 -8 -10 -3 2 6 8 18 11
28 9 24 47 22 47 -3z"/>
<path d="M1578 1063 c7 -3 16 -2 19 1 4 3 -2 6 -13 5 -11 0 -14 -3 -6 -6z"/>
<path d="M1015 940 c63 -8 191 -13 184 -6 -2 2 -58 6 -124 9 -81 3 -100 2 -60
-3z"/>
<path d="M296 845 c-3 -9 -5 -29 -5 -43 1 -20 3 -17 9 13 8 43 7 57 -4 30z"/>
<path d="M818 763 c7 -3 16 -2 19 1 4 3 -2 6 -13 5 -11 0 -14 -3 -6 -6z"/>
<path d="M1151 622 c26 -23 33 -38 37 -80 3 -36 1 -52 -7 -52 -8 0 -10 -8 -6
-22 5 -19 4 -20 -5 -8 -10 13 -11 12 -6 -3 4 -13 -4 -28 -25 -48 -17 -16 -26
-29 -21 -29 20 0 72 62 83 100 6 21 9 54 5 73 -7 36 -54 97 -75 97 -6 0 3 -13
20 -28z"/>
<path d="M1130 503 c-48 -8 -52 -11 -40 -33 14 -26 45 -25 64 2 17 24 20 39 9
37 -5 -1 -19 -4 -33 -6z"/>
</g>
</svg>
